<svg width="400" height="180" viewBox="0 0 400 180" fill="none" xmlns="http://www.w3.org/2000/svg">
  <!-- API key cards floating -->
  <rect x="20" y="20" width="160" height="60" rx="8" fill="#0d0d14" stroke="rgba(217,119,87,0.4)" stroke-width="1"/>
  <text x="36" y="42" font-family="monospace" font-size="9" fill="#D97757">ANTHROPIC_API_KEY</text>
  <text x="36" y="58" font-family="monospace" font-size="9" fill="#9ca3af">sk-ant-•••••••••</text>
  <circle cx="164" cy="36" r="3" fill="#10b981"/>

  <rect x="40" y="60" width="160" height="60" rx="8" fill="#0d0d14" stroke="rgba(0,122,255,0.4)" stroke-width="1"/>
  <text x="56" y="82" font-family="monospace" font-size="9" fill="#007AFF">OPENAI_API_KEY</text>
  <text x="56" y="98" font-family="monospace" font-size="9" fill="#9ca3af">sk-proj-•••••••••</text>
  <circle cx="184" cy="76" r="3" fill="#10b981"/>

  <rect x="60" y="100" width="160" height="60" rx="8" fill="#0d0d14" stroke="rgba(66,133,244,0.4)" stroke-width="1"/>
  <text x="76" y="122" font-family="monospace" font-size="9" fill="#4285F4">GEMINI_API_KEY</text>
  <text x="76" y="138" font-family="monospace" font-size="9" fill="#9ca3af">AIza-•••••••••</text>
  <circle cx="204" cy="116" r="3" fill="#10b981"/>

  <!-- Lock icon -->
  <rect x="300" y="60" width="60" height="70" rx="8" fill="rgba(0,229,255,0.05)" stroke="rgba(0,229,255,0.2)" stroke-width="1"/>
  <rect x="316" y="80" width="28" height="24" rx="4" fill="rgba(0,229,255,0.2)"/>
  <path d="M324 80V72C324 67 328 63 330 63C332 63 336 67 336 72V80" stroke="#00e5ff" stroke-width="2" fill="none"/>
  <circle cx="330" cy="92" r="2" fill="#00e5ff"/>
  <text x="330" y="118" text-anchor="middle" font-family="sans-serif" font-size="8" fill="#00e5ff">LOCAL</text>
</svg>
